<?xml version="1.0" encoding="iso-8859-1"?>
<!-- Generator: Adobe Illustrator 19.0.0, SVG Export Plug-In . SVG Version: 6.00 Build 0)  -->
<svg version="1.1" id="Layer_1" xmlns="http://www.w3.org/2000/svg" xmlns:xlink="http://www.w3.org/1999/xlink" x="0px" y="0px"
	 viewBox="0 0 512 512" style="enable-background:new 0 0 512 512;" xml:space="preserve">
<g>
	<g>
		<path d="M484.511,198.413h-27.373c1.924-3.776,3.017-8.043,3.017-12.564c0-15.313-12.458-27.772-27.772-27.772h-44.898v-12.565
			c0-4.52-1.093-8.787-3.016-12.564h12.234c15.313,0,27.772-12.458,27.772-27.773c0-15.313-12.458-27.772-27.772-27.772H124.726
			c-15.313,0-27.772,12.458-27.772,27.772c0,4.521,1.093,8.788,3.017,12.565H87.738c-15.313,0-27.772,12.458-27.772,27.772
			c0,7.935,3.345,15.102,8.698,20.168c-5.353,5.066-8.698,12.233-8.698,20.169c0,4.521,1.092,8.788,3.016,12.564H27.489
			C12.332,198.413,0,210.744,0,225.902s12.332,27.489,27.489,27.489h12.275l42.803,181.205h346.866l42.803-181.205h12.275
			c15.157,0,27.489-12.332,27.489-27.489S499.668,198.413,484.511,198.413z M432.383,173.286c6.928,0,12.564,5.636,12.564,12.564
			c0,6.928-5.636,12.564-12.564,12.564H160.407c-6.928,0-12.564-5.636-12.564-12.564c0-6.928,5.636-12.564,12.564-12.564H432.383z
			 M124.726,92.614h271.976c6.928,0,12.564,5.636,12.564,12.564c0,6.928-5.636,12.565-12.564,12.565h-36.989H124.726
			c-6.928,0-12.564-5.637-12.564-12.565C112.162,98.25,117.799,92.614,124.726,92.614z M87.738,158.077
			c-6.928,0-12.564-5.636-12.564-12.564c0-6.928,5.636-12.564,12.564-12.564h36.989h234.988c6.928,0,12.564,5.636,12.564,12.564
			v12.565H160.407c-15.313,0-27.772,12.458-27.772,27.772c0,4.521,1.093,8.788,3.017,12.565H87.738
			c-6.928,0-12.564-5.637-12.564-12.565c0-6.928,5.636-12.565,12.564-12.565h12.006v-15.208H87.738z M417.399,419.388H94.601
			L55.39,253.39h15.884l35.429,149.986h126.997H278.3h127.378l35.429-149.986h15.504L417.399,419.388z M181.027,350.037
			l-3.627-21.653h20.657l1.964,21.653H181.027z M201.402,365.245l2.079,22.923h-16.068l-3.839-22.923H201.402z M174.854,313.175
			l-3.627-21.652h23.487l1.964,21.652H174.854z M171.993,388.168h-16.271l-5.13-22.923h17.562L171.993,388.168z M168.681,276.315
			l-3.84-22.923h26.415l2.079,22.923H168.681z M165.607,350.037h-18.419l-4.846-21.653h19.638L165.607,350.037z M138.94,313.175
			l-4.845-21.652h21.714l3.627,21.652H138.94z M140.139,388.168h-21.402l-5.415-22.923h21.687L140.139,388.168z M130.691,276.315
			l-5.13-22.923h23.861l3.839,22.923H130.691z M126.759,328.383l4.846,21.653H109.73l-5.115-21.653H126.759z M101.022,313.175
			l-5.115-21.652h22.602l4.845,21.652H101.022z M92.315,276.315L86.9,253.391h23.076l5.13,22.923H92.315z M215.292,350.037
			l-1.964-21.653H233.7v21.653H215.292z M233.7,365.245v22.923h-14.949l-2.079-22.923H233.7z M211.949,313.175l-1.964-21.652H233.7
			v21.652H211.949z M208.606,276.315l-2.079-22.923H233.7v22.923H208.606z M248.908,388.168V253.39h14.183v134.778H248.908z
			 M302.264,291.523l-1.964,21.652h-22.001v-21.652H302.264z M278.3,276.315v-22.923h27.423l-2.079,22.923H278.3z M298.921,328.383
			l-1.964,21.653H278.3v-21.653H298.921z M295.577,365.245l-2.079,22.923h-15.199v-22.923H295.577z M416.473,291.523l-5.115,21.652
			h-22.464l4.845-21.652H416.473z M397.143,276.315l5.13-22.923h23.207l-5.415,22.923H397.143z M407.766,328.383l-5.115,21.653
			h-22.007l4.846-21.653H407.766z M399.059,365.245l-5.415,22.923h-21.532l5.13-22.923H399.059z M381.559,276.315h-22.571
			l3.839-22.923h23.861L381.559,276.315z M378.155,291.523l-4.845,21.652h-20.494l3.627-21.652H378.155z M369.906,328.383
			l-4.846,21.653h-18.419l3.627-21.653H369.906z M361.658,365.245l-5.13,22.923h-16.271l3.839-22.923H361.658z M343.568,276.315
			h-24.655l2.079-22.923h26.415L343.568,276.315z M341.021,291.523l-3.627,21.652h-21.825l1.964-21.652H341.021z M334.848,328.383
			l-3.627,21.653h-18.996l1.964-21.653H334.848z M328.675,365.245l-3.839,22.923h-16.068l2.079-22.923H328.675z M484.511,238.182
			h-8.683h-46.756H278.3h-44.599H83.308H36.172h-8.683c-6.772,0-12.281-5.509-12.281-12.281c0-6.773,5.509-12.281,12.281-12.281
			h60.209c0.013,0,0.026,0.001,0.039,0.001h271.976c0.013,0,0.026-0.001,0.04-0.001h72.631h52.128
			c6.772,0,12.281,5.509,12.281,12.281C496.792,232.674,491.283,238.182,484.511,238.182z"/>
	</g>
</g>
<g>
</g>
<g>
</g>
<g>
</g>
<g>
</g>
<g>
</g>
<g>
</g>
<g>
</g>
<g>
</g>
<g>
</g>
<g>
</g>
<g>
</g>
<g>
</g>
<g>
</g>
<g>
</g>
<g>
</g>
</svg>
