<?xml version="1.0" encoding="iso-8859-1"?>
<!-- Generator: Adobe Illustrator 16.0.0, SVG Export Plug-In . SVG Version: 6.00 Build 0)  -->
<!DOCTYPE svg PUBLIC "-//W3C//DTD SVG 1.1//EN" "http://www.w3.org/Graphics/SVG/1.1/DTD/svg11.dtd">
<svg version="1.1" id="Capa_1" xmlns="http://www.w3.org/2000/svg" xmlns:xlink="http://www.w3.org/1999/xlink" x="0px" y="0px"
	 width="792.004px" height="792.004px" viewBox="0 0 792.004 792.004" style="enable-background:new 0 0 792.004 792.004;"
	 xml:space="preserve">
<g>
	<g>
		<path d="M344.007,65.727h96.979c4.655,0,8.434-3.778,8.434-8.433c0-4.655-3.778-8.433-8.434-8.433h-96.979
			c-4.655,0-8.433,3.778-8.433,8.433C335.574,61.949,339.348,65.727,344.007,65.727z"/>
		<path d="M628.549,184.695L628.54,59.512C628.536,30.257,604.806,0,565.095,0C462.508,0,253.163,0.763,226.274,1.336
			c-41.781,0.873-62.122,43.211-62.805,59.174c-0.139,3.445,0.009,38.935,0.337,112.45c0.67,151.355,1.918,433.083,0.253,548.552
			c-0.472,32.083,18.435,65.934,61.721,69.227c10.25,0.822,100.673,1.265,192.361,1.265c50.969,0,102.347-0.135,140.519-0.422
			c41.823-0.308,69.927-28.908,69.927-71.174C628.587,603.7,628.562,342.008,628.549,184.695z M558.534,774.712
			c-112.796,0.827-317.211,0.347-331.442-0.792c-22.667-1.725-46.697-16.335-46.166-52.167
			c1.669-115.629,0.421-397.463-0.253-548.873c-0.266-60.6-0.481-108.465-0.35-111.669c0.417-9.804,15.668-42.367,46.31-43.008
			c26.817-0.578,235.943-1.336,338.462-1.336c22.896,0,46.575,15.951,46.575,42.641l0.009,125.188
			c0.013,157.313,0.038,419.005,0.038,535.709C611.721,753.157,590.841,774.477,558.534,774.712z"/>
		<path d="M566.76,104.982l-15.609,0.03c-210.559,0.371-319.804,0.455-324.552,0.27c-9.428-0.695-15.841,4.777-16.773,14.404
			c-0.253,3.011-0.27,119.221-0.072,428.792l0.046,72.92c0,10.233,6.384,17.106,15.883,17.106H565.77
			c10.056,0,16.301-6.557,16.301-17.106c0-181.865,0.063-491.6,0.304-498.916c0.215-4.941-1.4-9.475-4.554-12.768
			C574.902,106.665,570.98,104.982,566.76,104.982z M565.204,621.396c0,0.084,0,0.164,0,0.24l-338.538-0.013
			c0-0.071,0-0.147,0-0.231l-0.042-72.924c-0.084-133.17-0.261-406.968-0.013-426.33c8.513,0.139,62.375,0.202,324.577-0.261
			l14.341-0.025C565.222,134.422,565.204,539.613,565.204,621.396z"/>
		<path d="M435.678,685.336c0-3.627-1.379-6.975-3.879-9.429c-4.381-4.297-10.688-4.381-11.743-4.372l-48.254,0.151
			c-7.294,0-15.175,5.114-15.403,14.568c-0.177,6.51-0.177,40.035,0,48.46c0.118,6.211,2.787,9.951,5.005,12
			c4.019,3.706,8.884,4.124,10.866,4.124c0.122,0,0.232,0,0.329-0.005h47.976c0.165,0,0.325-0.004,0.485-0.013
			c5.73-0.333,14.357-5.013,14.623-16.558c0-0.013,0-0.025,0-0.038c0.113-6.194,0.055-27.997,0.021-41.022L435.678,685.336z
			 M418.816,733.893c0,0.025,0,0.051,0,0.076h-45.568c-0.147-8.054-0.16-36.296-0.025-45.416l45.598-0.144l0.013,4.845
			C418.862,705.343,418.922,727.846,418.816,733.893z"/>
		<path d="M252.34,145.001c-4.655,0-8.433,3.778-8.433,8.433v433.113c0,4.655,3.778,8.434,8.433,8.434s8.433-3.778,8.433-8.434
			V153.434C260.773,148.774,257,145.001,252.34,145.001z"/>
		<path d="M209.273,72.6c0-5.292,1.455-9.146,4.449-11.793c6.189-5.473,18.013-5.393,22.052-4.883
			c4.604,0.578,8.829-2.669,9.428-7.278c0.603-4.621-2.652-8.854-7.273-9.453c-2.239-0.291-22.284-2.521-35.305,8.909
			c-6.683,5.87-10.221,14.34-10.221,24.498c0,4.655,3.778,8.433,8.433,8.433S209.273,77.254,209.273,72.6z"/>
		<path d="M232.54,742.574c-5.266,0.615-9.259-0.371-12.236-3.031c-6.164-5.503-7.467-17.25-7.446-21.323
			c0.042-4.646-3.685-8.454-8.336-8.509c-0.034,0-0.067,0-0.101,0c-4.613,0-8.378,3.711-8.433,8.336
			c-0.025,2.26,0.114,22.424,13.004,34.006c5.544,4.988,12.641,7.557,20.728,7.557c1.564,0,3.167-0.093,4.803-0.287
			c4.625-0.548,7.931-4.743,7.383-9.369C241.356,745.328,237.165,742.068,232.54,742.574z"/>
	</g>
</g>
<g>
</g>
<g>
</g>
<g>
</g>
<g>
</g>
<g>
</g>
<g>
</g>
<g>
</g>
<g>
</g>
<g>
</g>
<g>
</g>
<g>
</g>
<g>
</g>
<g>
</g>
<g>
</g>
<g>
</g>
</svg>
